<?xml version="1.0" standalone="no"?>
<!DOCTYPE svg PUBLIC "-//W3C//DTD SVG 20010904//EN"
 "http://www.w3.org/TR/2001/REC-SVG-20010904/DTD/svg10.dtd">
<svg version="1.0" xmlns="http://www.w3.org/2000/svg"
 width="1350.000000pt" height="381.000000pt" viewBox="0 0 1350.000000 381.000000"
 preserveAspectRatio="xMidYMid meet">
<metadata>
Created by potrace 1.15, written by Peter Selinger 2001-2017
</metadata>
<g transform="translate(0.000000,381.000000) scale(0.100000,-0.100000)"
fill="#000000" stroke="none">
<path d="M0 1905 l0 -1905 6750 0 6750 0 0 1905 0 1905 -6750 0 -6750 0 0
-1905z m2800 978 c0 -10 -444 -782 -450 -782 -6 0 -444 757 -448 776 -3 11 75
13 447 13 248 0 451 -3 451 -7z m-1430 -367 c176 -50 335 -181 410 -337 93
-194 93 -387 -1 -579 -56 -114 -171 -230 -280 -283 -120 -60 -179 -70 -389
-71 l-185 -1 -3 649 -2 648 197 -5 c137 -3 215 -10 253 -21z m2405 -626 l0
-645 -185 1 c-140 0 -201 5 -250 17 -216 56 -390 219 -461 432 -20 59 -24 90
-24 195 0 105 4 137 24 198 79 242 281 409 536 445 17 2 104 4 195 3 l165 -1
0 -645z m4935 249 l0 -151 35 31 c48 42 106 56 173 43 69 -14 105 -41 134
-100 21 -44 23 -62 26 -244 l4 -198 -85 0 -85 0 -4 176 -3 176 -28 24 c-58 50
-139 18 -157 -61 -5 -22 -10 -102 -10 -178 l0 -138 -82 3 -83 3 -3 383 -2 382
85 0 85 0 0 -151z m1910 -234 l0 -386 -82 3 -83 3 -3 383 -2 382 85 0 85 0 0
-385z m-4244 348 c99 -33 165 -97 199 -192 28 -80 27 -81 -70 -81 -84 0 -86 0
-96 28 -51 134 -255 142 -328 12 -28 -51 -38 -146 -22 -208 13 -47 60 -106
102 -128 36 -18 132 -18 167 0 35 18 68 54 81 89 10 27 12 27 96 27 97 0 97 0
69 -84 -22 -64 -100 -147 -166 -177 -46 -21 -69 -24 -163 -24 -100 0 -115 3
-167 28 -125 61 -199 179 -206 327 -8 179 77 319 234 380 64 25 201 27 270 3z
m-1404 -30 c79 -37 137 -94 175 -171 25 -51 28 -67 28 -162 0 -94 -3 -111 -28
-161 -36 -75 -117 -150 -192 -179 -53 -21 -80 -24 -242 -28 l-183 -4 0 372 0
372 188 -4 c186 -3 187 -3 254 -35z m464 -55 c31 -51 64 -105 73 -120 l17 -28
69 116 c38 64 74 118 80 120 6 3 53 3 103 2 l92 -3 -115 -178 c-63 -98 -115
-181 -115 -184 0 -3 52 -86 115 -184 63 -98 115 -181 115 -184 0 -3 -46 -4
-102 -3 l-102 3 -70 117 c-39 65 -74 114 -79 109 -4 -4 -38 -57 -75 -117 l-68
-109 -97 -3 c-53 -1 -97 1 -97 6 0 4 52 88 115 186 64 99 112 183 108 189 -4
7 -55 87 -115 179 -59 91 -108 169 -108 172 0 3 45 6 99 6 l100 0 57 -92z
m1694 -38 l0 -80 60 0 60 0 0 -65 0 -65 -60 0 -60 0 0 -120 c0 -117 1 -120 25
-136 18 -12 36 -15 65 -10 l40 6 0 -69 0 -70 -45 -7 c-61 -9 -145 3 -183 26
-60 37 -67 58 -70 227 l-4 153 -39 0 -39 0 0 65 0 65 40 0 40 0 0 80 0 80 85
0 85 0 0 -80z m579 -86 c51 -20 123 -99 139 -152 7 -21 12 -65 12 -96 l0 -56
-195 0 c-107 0 -195 -2 -195 -5 0 -3 6 -21 14 -40 29 -68 128 -85 185 -31 24
23 35 26 97 26 39 0 73 -3 77 -6 12 -12 -32 -82 -73 -116 -49 -43 -98 -58
-182 -58 -121 0 -199 45 -248 143 -24 49 -30 73 -30 127 0 146 73 247 205 281
43 12 145 3 194 -17z m616 -3 c65 -29 93 -55 121 -116 35 -75 35 -75 -57 -75
-79 0 -81 1 -113 35 -28 29 -40 35 -76 35 -117 0 -162 -180 -61 -247 19 -13
46 -23 60 -23 34 0 87 33 96 59 6 19 14 21 91 21 73 0 84 -2 84 -17 -1 -63
-94 -169 -168 -191 -49 -15 -167 -14 -209 1 -137 51 -212 203 -169 348 46 161
238 242 401 170z m1284 4 c39 -20 69 -56 86 -104 11 -33 15 -88 15 -232 l0
-189 -85 0 -85 0 0 175 c0 173 0 176 -25 200 -41 42 -122 29 -150 -24 -12 -23
-15 -65 -15 -191 l0 -160 -85 0 -85 0 0 265 0 265 85 0 85 0 0 -29 0 -29 30
28 c16 15 47 33 67 38 45 13 126 6 162 -13z m596 1 c176 -74 227 -303 98 -446
-55 -62 -125 -90 -222 -90 -119 0 -204 45 -258 137 -38 66 -44 178 -13 251 30
69 102 134 172 155 63 20 167 16 223 -7z m925 -7 c144 -62 202 -249 123 -392
-33 -58 -100 -110 -166 -128 -62 -17 -184 -7 -234 19 -187 96 -205 365 -32
479 85 56 209 65 309 22z m523 20 c21 -5 53 -24 72 -41 l35 -30 0 31 0 31 85
0 85 0 0 -292 c0 -184 -4 -308 -11 -333 -17 -60 -82 -119 -153 -140 -88 -26
-215 -18 -288 18 -60 29 -101 79 -113 135 l-7 32 85 0 c80 0 84 -1 95 -26 29
-61 149 -69 197 -13 21 25 25 41 25 90 l0 59 -41 -27 c-29 -19 -57 -28 -100
-31 -88 -6 -145 13 -201 69 -137 137 -85 399 92 459 64 22 90 24 143 9z m567
-136 c29 -71 57 -141 63 -156 5 -15 12 -25 16 -22 3 4 31 72 61 153 l56 147
87 3 c48 1 87 0 87 -3 0 -14 -245 -616 -268 -659 -40 -74 -85 -99 -188 -104
l-84 -5 0 76 0 75 39 -5 c49 -7 76 8 101 57 l20 39 -114 265 -114 266 93 0 93
0 52 -127z m-5416 -207 c88 -37 79 -169 -15 -197 -65 -20 -125 17 -135 82 -8
47 9 85 48 109 39 24 57 25 102 6z m-4232 -415 c120 -209 221 -386 224 -395 6
-15 -35 -16 -450 -16 l-456 0 27 48 c16 26 118 204 228 395 110 190 202 346
205 346 3 0 103 -170 222 -378z"/>
<path d="M4700 1890 l0 -220 45 0 c159 0 255 83 255 220 0 68 -25 125 -73 167
-43 38 -91 53 -169 53 l-58 0 0 -220z"/>
<path d="M7506 1914 c-14 -15 -26 -35 -26 -45 0 -17 9 -19 105 -19 119 0 129
8 76 61 -25 24 -38 29 -79 29 -40 0 -54 -5 -76 -26z"/>
<path d="M10035 1910 c-84 -34 -101 -173 -27 -230 17 -14 40 -20 74 -20 43 0
54 4 84 34 30 30 34 40 34 88 -1 29 -6 63 -14 76 -27 50 -97 75 -151 52z"/>
<path d="M10929 1897 c-47 -32 -67 -90 -50 -147 19 -64 53 -90 117 -90 45 0
57 4 83 30 80 80 25 230 -84 230 -18 0 -47 -10 -66 -23z"/>
<path d="M11572 1900 c-35 -21 -62 -72 -62 -115 0 -39 35 -99 65 -113 14 -7
45 -12 69 -12 124 0 160 186 47 245 -41 20 -79 19 -119 -5z"/>
</g>
</svg>
